<svg width="183" height="248" viewBox="0 0 183 248" fill="none" xmlns="http://www.w3.org/2000/svg">
<path d="M36.8423 48.0411C37.1482 48.0407 37.4541 48.0403 37.7692 48.0399C38.616 48.0388 39.4628 48.0391 40.3096 48.0397C41.2317 48.0401 42.1538 48.0391 43.0759 48.0383C44.6913 48.0371 46.3068 48.0367 47.9222 48.037C50.3244 48.0373 52.7267 48.0364 55.129 48.0351C59.6691 48.0328 64.2093 48.0321 68.7494 48.032C72.2555 48.0319 75.7615 48.0314 79.2675 48.0306C80.2768 48.0304 81.286 48.0302 82.2953 48.03C82.6716 48.0299 82.6716 48.0299 83.0556 48.0298C90.1127 48.0284 97.1698 48.0274 104.227 48.0275C104.493 48.0275 104.759 48.0275 105.033 48.0275C106.382 48.0276 107.73 48.0276 109.079 48.0276C109.48 48.0276 109.48 48.0276 109.89 48.0276C110.432 48.0276 110.973 48.0276 111.515 48.0277C119.942 48.0278 128.369 48.026 136.796 48.0228C146.263 48.0191 155.731 48.0171 165.199 48.0173C166.208 48.0173 167.218 48.0173 168.227 48.0173C168.6 48.0173 168.6 48.0173 168.981 48.0173C172.981 48.0173 176.981 48.0158 180.981 48.0138C185.001 48.0117 189.021 48.0115 193.041 48.0131C195.428 48.0139 197.816 48.0135 200.204 48.0112C201.8 48.0098 203.396 48.0101 204.992 48.0118C205.901 48.0127 206.809 48.0129 207.718 48.0109C208.699 48.0089 209.679 48.0105 210.66 48.0125C210.94 48.0113 211.219 48.0101 211.507 48.0089C215.384 48.0255 219.34 48.4934 222.219 51.3665C223.791 53.2212 224.061 54.9802 223.938 57.3492C223.709 60.1069 222.149 61.6726 220.283 63.5543C219.962 63.8836 219.64 64.2129 219.319 64.5423C218.727 65.1477 218.133 65.7504 217.539 66.3531C217.421 66.4736 217.303 66.5941 217.181 66.7182C216.841 67.063 216.5 67.4059 216.159 67.7487C215.959 67.9501 215.76 68.1514 215.554 68.3589C215.062 68.7946 212.88 71.0841 214.587 68.7946C214.526 68.937 214.465 69.0795 214.401 69.2263C214.089 69.7907 213.797 70.0614 213.297 70.4619C212.059 71.5134 210.997 72.7128 209.919 73.9233C209.636 74.2376 209.345 74.5456 209.054 74.8527C204.22 79.9989 201.973 85.8321 201.974 92.8827C201.974 93.2511 201.973 93.6194 201.972 93.9878C201.969 94.9972 201.968 96.0067 201.968 97.0162C201.967 98.106 201.965 99.1959 201.963 100.286C201.958 102.916 201.956 105.547 201.953 108.177C201.952 109.417 201.951 110.657 201.95 111.897C201.946 116.021 201.942 120.146 201.941 124.27C201.94 125.339 201.94 126.409 201.939 127.478C201.939 127.744 201.939 128.009 201.939 128.283C201.937 132.587 201.931 136.891 201.923 141.195C201.915 145.618 201.911 150.041 201.91 154.464C201.91 156.945 201.908 159.427 201.902 161.909C201.897 164.022 201.895 166.136 201.897 168.25C201.898 169.327 201.898 170.404 201.893 171.481C201.889 172.47 201.889 173.458 201.893 174.447C201.893 174.802 201.892 175.157 201.889 175.513C201.866 178.649 202.326 181.8 203.819 184.601C203.899 184.756 203.979 184.911 204.061 185.071C205.63 188.001 207.802 190.557 210.553 192.417C209.748 193.279 208.855 193.964 207.913 194.665C207.746 194.789 207.58 194.913 207.409 195.042C206.008 196.086 204.595 197.111 203.178 198.134C201.872 199.077 200.574 200.032 199.28 200.992C197.823 202.072 196.36 203.145 194.89 204.207C191.789 206.45 188.713 208.723 185.678 211.055C184.197 212.194 182.708 213.316 181.183 214.396C178.45 216.334 175.764 218.341 173.121 220.401C172.533 220.856 171.94 221.303 171.344 221.748C171.173 221.876 171.002 222.004 170.825 222.136C170.491 222.384 170.157 222.632 169.823 222.879C169.169 223.367 168.567 223.837 167.991 224.418C167.597 224.811 167.597 224.811 167.123 224.811C167.123 177.727 167.123 130.644 167.123 82.1334C158.273 82.1334 149.423 82.1334 140.305 82.1334C140.307 84.9459 140.307 84.9459 140.31 87.8153C140.32 100.2 140.329 112.585 140.335 124.969C140.335 125.181 140.335 125.392 140.335 125.61C140.338 130.204 140.34 134.799 140.341 139.393C140.342 141.646 140.343 143.899 140.344 146.152C140.344 146.376 140.344 146.6 140.344 146.831C140.347 154.096 140.353 161.361 140.359 168.626C140.366 176.093 140.37 183.559 140.372 191.026C140.372 192.081 140.372 193.136 140.373 194.191C140.373 194.399 140.373 194.607 140.373 194.82C140.374 198.161 140.377 201.501 140.381 204.841C140.385 208.2 140.387 211.56 140.386 214.919C140.385 216.914 140.387 218.909 140.391 220.904C140.394 222.395 140.393 223.886 140.391 225.378C140.391 225.98 140.392 226.582 140.394 227.184C140.416 233.419 139.677 238.614 135.247 243.33C131.981 246.479 127.691 248.06 123.192 247.998C118.649 247.832 114.666 245.664 111.559 242.407C107.23 237.297 106.97 230.995 106.994 224.607C106.994 223.991 106.993 223.374 106.992 222.757C106.991 221.423 106.992 220.089 106.995 218.754C106.999 216.77 106.999 214.786 106.999 212.802C106.998 209.463 107 206.125 107.004 202.786C107.009 199.483 107.011 196.18 107.012 192.877C107.012 192.671 107.012 192.465 107.012 192.253C107.012 191.208 107.013 190.163 107.013 189.118C107.014 181.725 107.019 174.332 107.026 166.94C107.032 159.76 107.038 152.58 107.041 145.4C107.041 145.068 107.041 145.068 107.041 144.729C107.042 142.505 107.043 140.28 107.044 138.056C107.045 133.525 107.047 128.993 107.049 124.462C107.05 124.254 107.05 124.046 107.05 123.831C107.056 109.932 107.068 96.0326 107.08 82.1334C98.3864 82.1334 89.6933 82.1334 80.7366 82.1334C80.7366 129.531 80.7366 176.929 80.7366 225.764C80.1101 225.292 79.4836 224.82 78.838 224.335C78.1374 223.812 77.4347 223.291 76.7318 222.771C76.536 222.626 76.3401 222.481 76.1384 222.332C75.011 221.499 73.879 220.673 72.7413 219.855C70.7831 218.445 68.8596 216.996 66.9466 215.526C64.3241 213.512 61.6657 211.549 58.9829 209.617C56.9936 208.184 55.0399 206.711 53.0968 205.215C51.8366 204.247 50.564 203.305 49.2656 202.39C47.7441 201.31 46.2715 200.165 44.7922 199.027C43.7346 198.215 42.6751 197.409 41.593 196.63C40.0456 195.515 38.1578 193.916 36.6666 192.727C37.2599 192.205 37.8113 191.921 38.5374 191.404C39.6336 190.575 40.4923 189.685 41.3408 188.606C41.5758 188.307 41.5758 188.307 41.8155 188.003C44.2815 184.74 45.8753 180.949 45.8818 176.807C45.8834 176.341 45.8834 176.341 45.885 175.866C45.885 175.523 45.885 175.18 45.8849 174.837C45.8857 174.471 45.8866 174.105 45.8876 173.739C45.8899 172.735 45.8908 171.73 45.8914 170.725C45.8924 169.641 45.8946 168.558 45.8967 167.474C45.9014 164.856 45.9038 162.239 45.9059 159.621C45.9069 158.387 45.9082 157.154 45.9095 155.92C45.9135 151.817 45.9169 147.714 45.9187 143.61C45.9191 142.546 45.9196 141.481 45.92 140.417C45.9202 140.02 45.9202 140.02 45.9204 139.615C45.9223 135.333 45.9284 131.051 45.9361 126.769C45.9439 122.369 45.9482 117.969 45.949 113.569C45.9495 111.1 45.9515 108.631 45.9576 106.162C45.9628 104.058 45.9647 101.955 45.9624 99.8513C45.9613 98.7794 45.9617 97.7075 45.9663 96.6355C45.9706 95.6514 45.9703 94.6674 45.9666 93.6833C45.966 93.33 45.967 92.9767 45.9699 92.6234C46.0227 85.6224 42.9634 79.9625 38.3437 74.8964C38.0336 74.5529 37.7252 74.2079 37.4241 73.8565C36.2984 72.5426 35.1034 71.3118 33.8799 70.0897C33.6883 69.8964 33.4966 69.7032 33.2991 69.504C32.2829 68.4857 31.2479 67.508 30.1598 66.5677C27.2703 64.0302 24.0364 61.0341 23.7306 56.9566C23.6928 54.5371 24.0965 52.8297 25.6607 50.9478C28.5918 48.0005 32.966 48.0344 36.8423 48.0411Z" fill="url(#paint0_linear_0_384)"/>
<path d="M20.0825 -17.9381C20.3871 -17.9388 20.6916 -17.9395 21.0054 -17.9403C21.3423 -17.9399 21.6793 -17.9395 22.0162 -17.939C22.3764 -17.9394 22.7366 -17.9399 23.0968 -17.9405C24.0903 -17.9418 25.0838 -17.9417 26.0773 -17.9413C27.1568 -17.9411 28.2363 -17.9423 29.3158 -17.9433C31.4585 -17.9451 33.6012 -17.9456 35.7439 -17.9458C38.3097 -17.946 40.8756 -17.9476 43.4414 -17.9492C49.6431 -17.953 55.8449 -17.9544 62.0466 -17.9555C64.9797 -17.9561 67.9128 -17.957 70.8459 -17.9579C80.8839 -17.9609 90.9219 -17.9635 100.96 -17.9643C101.59 -17.9643 102.22 -17.9644 102.851 -17.9644C103.482 -17.9645 104.114 -17.9646 104.746 -17.9646C105.855 -17.9647 106.963 -17.9648 108.072 -17.9649C108.39 -17.9649 108.707 -17.9649 109.024 -17.965C119.216 -17.9658 129.409 -17.9694 139.601 -17.975C150.532 -17.9809 161.463 -17.9843 172.394 -17.9846C173.577 -17.9847 174.759 -17.9847 175.941 -17.9848C176.232 -17.9848 176.523 -17.9848 176.823 -17.9848C181.511 -17.9851 186.199 -17.9877 190.886 -17.9912C195.597 -17.9946 200.307 -17.9954 205.017 -17.9935C207.816 -17.9924 210.616 -17.9933 213.415 -17.9971C215.284 -17.9994 217.154 -17.9991 219.023 -17.9967C220.089 -17.9955 221.154 -17.9953 222.22 -17.9983C223.19 -18.001 224.16 -18.0004 225.13 -17.9972C225.478 -17.9966 225.826 -17.9972 226.174 -17.9992C232.231 -18.0312 237.808 -15.4242 242.144 -11.2392C243.27 -10.0992 244.153 -8.80524 244.965 -7.42721C245.051 -7.28198 245.136 -7.13675 245.225 -6.98712C247.924 -2.28969 248.702 3.41008 247.348 8.69175C246.269 12.1473 244.944 15.2654 242.592 18.0594C242.436 18.2504 242.28 18.4414 242.12 18.6382C240.712 20.2965 239.132 21.5701 237.371 22.8233C237.09 23.0255 237.09 23.0255 236.804 23.2317C235.532 24.0719 234.162 24.6115 232.743 25.1457C232.557 25.2157 232.371 25.2858 232.179 25.358C229.643 26.273 227.274 26.4659 224.588 26.4575C224.232 26.4581 223.876 26.4589 223.52 26.46C222.542 26.4622 221.565 26.4615 220.588 26.4603C219.524 26.4596 218.46 26.4615 217.396 26.4631C215.532 26.4656 213.668 26.4663 211.803 26.4658C209.031 26.4651 206.259 26.467 203.487 26.4695C198.247 26.4741 193.008 26.4755 187.768 26.4758C183.721 26.476 179.675 26.477 175.628 26.4785C174.464 26.4789 173.299 26.4793 172.135 26.4798C171.7 26.4799 171.7 26.4799 171.257 26.4801C163.112 26.483 154.967 26.4849 146.823 26.4847C146.515 26.4847 146.208 26.4847 145.892 26.4846C144.335 26.4846 142.779 26.4846 141.222 26.4845C140.913 26.4845 140.604 26.4845 140.285 26.4845C139.66 26.4845 139.035 26.4844 138.41 26.4844C128.684 26.4841 118.959 26.4877 109.234 26.4942C98.3074 26.5015 87.3813 26.5056 76.4552 26.5052C75.29 26.5052 74.1247 26.5051 72.9594 26.5051C72.6725 26.5051 72.3856 26.5051 72.09 26.5051C67.4741 26.5051 62.8582 26.5081 58.2422 26.5122C53.6023 26.5163 48.9623 26.5167 44.3223 26.5136C41.5666 26.5119 38.8108 26.5127 36.0551 26.5174C34.2128 26.5203 32.3705 26.5196 30.5282 26.5162C29.4795 26.5144 28.4309 26.514 27.3822 26.5179C19.1068 26.5464 12.3126 25.2826 6.20382 19.2448C2.12085 14.7692 -0.195757 8.98335 0.0129962 2.91126C0.174249 0.144758 0.50137 -2.76643 1.70764 -5.28348C1.77284 -5.42149 1.83804 -5.55951 1.90522 -5.70171C2.86833 -7.71183 3.91196 -9.41875 5.50483 -11.0001C5.70062 -11.2064 5.89641 -11.4128 6.09814 -11.6254C6.29393 -11.812 6.48972 -11.9987 6.69145 -12.1911C6.82697 -12.3203 6.9625 -12.4496 7.10213 -12.5828C10.5039 -15.7108 15.4413 -17.9359 20.0825 -17.9381Z" fill="url(#paint1_linear_0_384)"/>
<defs>
<linearGradient id="paint0_linear_0_384" x1="124" y1="-67.875" x2="124" y2="248" gradientUnits="userSpaceOnUse">
<stop stop-color="#031D11" stop-opacity="0"/>
<stop offset="1" stop-color="#052718"/>
</linearGradient>
<linearGradient id="paint1_linear_0_384" x1="124" y1="-67.875" x2="124" y2="248" gradientUnits="userSpaceOnUse">
<stop stop-color="#031D11" stop-opacity="0"/>
<stop offset="1" stop-color="#052718"/>
</linearGradient>
</defs>
</svg>
